<svg height="512" viewBox="0 0 512 512" width="512" xmlns="http://www.w3.org/2000/svg"><g id="Flat"><path d="m176 112v184h80v-32h24a24 24 0 0 0 24-24v-48h32l-32-80z" fill="#fec9a3"/><path d="m272 168a16 16 0 1 1 16-16 16.019 16.019 0 0 1 -16 16z" fill="#78462f"/><path d="m304 224h-6.111a36.744 36.744 0 0 1 -33.044-20.422l14.31-7.156a20.833 20.833 0 0 0 18.734 11.578h6.111z" fill="#f7ad7c"/><path d="m328 88a24 24 0 0 1 -24 24h-64l-16 24h-7.731a20.838 20.838 0 0 0 -20.215 15.784 20.836 20.836 0 0 0 10.9 23.691l1.046.525-32 24v-88a40 40 0 0 1 40-40h112z" fill="#78462f"/><path d="m376 432v56h-64a32 32 0 0 1 -32-32v32h-176v-144a48 48 0 0 1 48-48h128a47.932 47.932 0 0 1 48 48v88z" fill="#4d5e78"/><path d="m376 432v56h-64a32 32 0 0 1 -32-32v32h-176v-24.44c78.52-23.72 157.42-66.26 221.25-135.63a48 48 0 0 1 2.75 16.07v88z" fill="#485870"/><path d="m456 488h-80v-56l24-32h24l-8 32h40a8 8 0 0 1 8 8v40a8 8 0 0 1 -8 8z" fill="#fec9a3"/><path d="m264 296-48 120-48-120z" fill="#e0e0de"/><path d="m232 296v80l-16 40-16-40v-80z" fill="#374357"/><path d="m208 440h16v16h-16z" fill="#3b495e"/><path d="m248 392h32v16h-32z" fill="#3b495e"/><path d="m232 120c0-15.4-9.631-28.436-22.887-32.76a35.678 35.678 0 0 0 3.387-15.24c0-18.936-14.551-34.286-32.5-34.286a31.055 31.055 0 0 0 -16.257 4.6 44.032 44.032 0 0 0 -71.486 0 31.055 31.055 0 0 0 -16.257-4.6c-17.949 0-32.5 15.35-32.5 34.286a35.678 35.678 0 0 0 3.387 15.24c-13.256 4.324-22.887 17.36-22.887 32.76s9.631 28.436 22.887 32.76a35.678 35.678 0 0 0 -3.387 15.24c0 18.935 14.551 34.286 32.5 34.286a31.055 31.055 0 0 0 16.257-4.6 44.032 44.032 0 0 0 71.486 0 31.055 31.055 0 0 0 16.257 4.6c17.949 0 32.5-15.351 32.5-34.286a35.678 35.678 0 0 0 -3.387-15.24c13.256-4.324 22.887-17.355 22.887-32.76z" fill="#ffb531"/><path d="m160 96a32 32 0 1 0 -55.352 21.869 26.43 26.43 0 0 1 7.352 18.037v.094h32v-.1a26.114 26.114 0 0 1 7.253-17.927 31.868 31.868 0 0 0 8.747-21.973z" fill="#fee97e"/><path d="m112 136h32v32h-32z" fill="#92563a"/><g fill="#fee97e"><path d="m48 112h24v16h-24z"/><path d="m176 112h24v16h-24z"/><path d="m64 60.686h16v22.627h-16z" transform="matrix(.707 -.707 .707 .707 -29.823 72)"/><path d="m172.686 64h22.627v16h-22.627z" transform="matrix(.707 -.707 .707 .707 2.984 151.204)"/><path d="m68.686 160h22.627v16h-22.627z" transform="matrix(.707 -.707 .707 .707 -95.365 105.782)"/><path d="m176 156.686h16v22.627h-16z" transform="matrix(.707 -.707 .707 .707 -64.902 179.314)"/></g><path d="m488 304v-32h-18.332a55.685 55.685 0 0 0 -4.4-10.641l12.957-12.959-22.625-22.625-12.957 12.957a55.685 55.685 0 0 0 -10.641-4.4v-18.332h-32.002v18.332a55.685 55.685 0 0 0 -10.641 4.4l-12.959-12.957-22.625 22.625 12.957 12.957a55.685 55.685 0 0 0 -4.4 10.641h-18.332v32h18.332a55.685 55.685 0 0 0 4.4 10.641l-12.957 12.961 22.625 22.625 12.957-12.957a55.685 55.685 0 0 0 10.641 4.4v18.332h32v-18.332a55.685 55.685 0 0 0 10.641-4.4l12.961 12.957 22.625-22.625-12.957-12.957a55.685 55.685 0 0 0 4.4-10.641zm-72 8a24 24 0 1 1 24-24 24 24 0 0 1 -24 24z" fill="#f35244"/><path d="m144 376h16v112h-16z" fill="#374357"/><path d="m272 376h16v112h-16z" fill="#374357"/></g></svg>