<svg id="Layer_5" enable-background="new 0 0 64 64" height="512" viewBox="0 0 64 64" width="512" xmlns="http://www.w3.org/2000/svg"><g><g><g><path d="m29 53.11v4.35l-10.21 4.38c-.25.11-.52.16-.79.16-.8 0-1.52-.48-1.84-1.21-.21-.49-.22-1.04-.02-1.53.2-.5.58-.89 1.07-1.1z" fill="#d3a06c"/></g><g><path d="m47.86 59.26c.2.49.19 1.04-.02 1.53-.32.73-1.04 1.21-1.84 1.21-.28 0-.54-.06-.79-.16l-10.21-4.38v-4.35l11.79 5.05c.49.21.87.6 1.07 1.1z" fill="#d3a06c"/></g><g><path d="m35 57.46v1.54c0 1.66-1.34 3-3 3-.83 0-1.58-.34-2.12-.88s-.88-1.29-.88-2.12v-1.54-4.35-9.11h6v9.11z" fill="#cf9e76"/></g><g><path d="m62 4v2c0 1.1-.9 2-2 2h-56c-1.1 0-2-.9-2-2v-2c0-1.1.9-2 2-2h56c1.1 0 2 .9 2 2z" fill="#ccd1d9"/></g><g><path d="m4 8v36h25 6 25v-36z" fill="#e6e9ed"/></g><g><path d="m20 32h8c0 4.42-3.58 8-8 8-2.21 0-4.21-.9-5.66-2.34z" fill="#fcd770"/></g><g><path d="m20 24v8l-5.66 5.66c-1.44-1.45-2.34-3.45-2.34-5.66 0-4.42 3.58-8 8-8z" fill="#b4dd7f"/></g><g><path d="m28 32h-8v-8c4.42 0 8 3.58 8 8z" fill="#ff826e"/></g><g><path d="m62 16v12c0 1.1-.9 2-2 2h-8l-5.61 3.74c-.26.17-.55.26-.85.26-.85 0-1.54-.69-1.54-1.54v-2.46h-2c-1.1 0-2-.9-2-2v-12c0-1.1.9-2 2-2h18c1.1 0 2 .9 2 2z" fill="#ffeaa7"/></g></g><g><path d="m63 6v-2c0-1.654-1.346-3-3-3h-56c-1.654 0-3 1.346-3 3v2c0 1.302.839 2.402 2 2.816v36.184h25v7.451l-11.182 4.792c-.736.314-1.306.898-1.604 1.642-.299.746-.289 1.562.026 2.292.473 1.107 1.556 1.823 2.761 1.823.411 0 .809-.082 1.18-.243l8.819-3.78v.023c0 2.206 1.794 4 4 4s4-1.794 4-4v-.022l8.811 3.776c.377.163.778.246 1.189.246 1.204 0 2.286-.714 2.757-1.816.316-.737.326-1.554.028-2.299-.299-.744-.868-1.327-1.604-1.642l-11.181-4.792v-7.451h25v-14.184c1.161-.414 2-1.514 2-2.816v-12c0-1.302-.839-2.402-2-2.816v-4.368c1.161-.414 2-1.514 2-2.816zm-60-2c0-.552.448-1 1-1h56c.552 0 1 .448 1 1v2c0 .552-.448 1-1 1h-56c-.552 0-1-.448-1-1zm15.39 56.92c-.483.212-1.098-.032-1.311-.53-.104-.242-.106-.513-.007-.761s.288-.442.533-.548l10.395-4.454v2.175zm28.005-1.838c.245.104.435.299.534.547s.096.52-.011.767c-.21.492-.812.74-1.317.521l-9.601-4.114v-2.176zm-12.395-.082c0 1.103-.897 2-2 2s-2-.897-2-2v-14h4zm-29-16v-34h54v4h-17c-1.654 0-3 1.346-3 3v12c0 1.654 1.346 3 3 3h1v1.465c0 1.397 1.138 2.535 2.535 2.535.502 0 .988-.147 1.406-.426l5.362-3.574h6.697v12zm56-15c0 .552-.448 1-1 1h-8.303l-5.865 3.91c-.332.222-.832-.044-.832-.445v-3.465h-3c-.552 0-1-.448-1-1v-12c0-.552.448-1 1-1h18c.552 0 1 .448 1 1z"/><path d="m43 17h2v2h-2z"/><path d="m47 17h12v2h-12z"/><path d="m43 21h2v2h-2z"/><path d="m47 21h12v2h-12z"/><path d="m43 25h2v2h-2z"/><path d="m47 25h12v2h-12z"/><path d="m20 23c-4.963 0-9 4.037-9 9s4.037 9 9 9 9-4.037 9-9-4.037-9-9-9zm6.92 8h-5.92v-5.92c3.059.441 5.479 2.861 5.92 5.92zm-7.92-5.92v6.506l-4.598 4.598c-.876-1.169-1.402-2.614-1.402-4.184 0-3.519 2.614-6.432 6-6.92zm1 13.92c-1.57 0-3.015-.526-4.184-1.402l4.598-4.598h6.506c-.488 3.386-3.401 6-6.92 6z"/><path d="m7 11h26v2h-26z"/><path d="m11 15h22v2h-22z"/><path d="m7 15h2v2h-2z"/><path d="m7 19h26v2h-26z"/></g></g></svg>