<svg height="496pt" viewBox="0 0 496 496" width="496pt" xmlns="http://www.w3.org/2000/svg"><path d="m8 8v224h128v-32h-64c0-17.679688-14.320312-32-32-32v-96c17.679688 0 32-14.320312 32-32h352c0 .398438 0 .800781.078125 1.199219.5625 17.121093 14.640625 30.800781 31.921875 30.800781v96c-17.679688 0-32 14.320312-32 32h-240v32h304v-224zm0 0" fill="#b4dd7f"/><g fill="#ffeaa7"><path d="m456 72v96c-17.679688 0-32 14.320312-32 32h-176c44.160156 0 80-35.839844 80-80s-35.839844-80-80-80h176c0 .398438 0 .800781.078125 1.199219.5625 17.121093 14.640625 30.800781 31.921875 30.800781zm0 0"/><path d="m72 40h176c-44.160156 0-80 35.839844-80 80 0 3.28125.160156 6.480469.558594 9.601562-2.636719-1.042968-5.519532-1.601562-8.558594-1.601562-6.640625 0-12.640625 2.71875-16.960938 7.039062-4.320312 4.320313-7.039062 10.320313-7.039062 16.960938v48h-64c0-17.679688-14.320312-32-32-32v-96c17.679688 0 32-14.320312 32-32zm0 0"/><path d="m248 200h-64v-32.078125c14.558594 19.519531 37.839844 32.078125 64 32.078125zm0 0"/></g><path d="m284.078125 440h-132.078125v-64h112c0 23.761719 7.441406 45.839844 20.078125 64zm0 0" fill="#e6e9ed"/><path d="m184 232h176v33.121094c-54.238281 7.757812-96 54.480468-96 110.878906h-96v-24l-21.28125-31.839844c-6.957031-10.558594-10.71875-22.878906-10.71875-35.519531v-132.640625c0-6.640625 2.71875-12.640625 7.039062-16.960938 4.320313-4.320312 10.320313-7.039062 16.960938-7.039062 3.039062 0 5.921875.558594 8.558594 1.601562 9.042968 3.4375 15.441406 12.160157 15.441406 22.398438zm0 0" fill="#f0d0b4"/><path d="m376 264c61.839844 0 112 50.160156 112 112s-50.160156 112-112 112c-38 0-71.679688-18.960938-91.921875-48-12.636719-18.160156-20.078125-40.238281-20.078125-64 0-56.398438 41.761719-103.121094 96-110.878906 5.199219-.722656 10.558594-1.121094 16-1.121094zm24 112 48-48-24-24-48 48-48-48-24 24 48 48-48 48 24 24 48-48 48 48 24-24zm0 0" fill="#ff826e"/><path d="m448 328-48 48 48 48-24 24-48-48-48 48-24-24 48-48-48-48 24-24 48 48 48-48zm0 0" fill="#e6e9ed"/><path d="m248 40c44.160156 0 80 35.839844 80 80s-35.839844 80-80 80c-26.160156 0-49.441406-12.558594-64-32.078125v-15.921875c0-10.238281-6.398438-18.960938-15.441406-22.398438-.398438-3.121093-.558594-6.320312-.558594-9.601562 0-44.160156 35.839844-80 80-80zm0 0" fill="#fcd770"/><path d="m248 144c-4.40625 0-8-3.59375-8-8h-16c0 10.414062 6.710938 19.214844 16 22.527344v17.472656h16v-17.472656c9.289062-3.3125 16-12.113282 16-22.527344 0-13.230469-10.769531-24-24-24-4.40625 0-8-3.59375-8-8s3.59375-8 8-8 8 3.59375 8 8h16c0-10.414062-6.710938-19.214844-16-22.527344v-17.472656h-16v17.472656c-9.289062 3.3125-16 12.113282-16 22.527344 0 13.230469 10.769531 24 24 24 4.40625 0 8 3.59375 8 8s-3.59375 8-8 8zm0 0"/><path d="m496 240v-240h-496v240h128v44.625c0 14.261719 4.183594 28.078125 12.097656 39.941406l19.902344 29.859375v13.574219h-16v80h136.230469c21.921875 29.078125 56.632812 48 95.769531 48 66.167969 0 120-53.832031 120-120s-53.832031-120-120-120c-2.703125 0-5.34375.230469-8 .40625v-16.40625zm-480-16v-208h464v208h-288v-16h240v-8c0-13.230469 10.769531-24 24-24h8v-112h-8c-13.230469 0-24-10.769531-24-24v-8h-368v8c0 13.230469-10.769531 24-24 24h-8v112h8c13.230469 0 24 10.769531 24 24v8h64v16zm112-72v40h-48.808594c-3.183594-15.648438-15.542968-28.007812-31.191406-31.191406v-81.617188c15.648438-3.183594 28.007812-15.542968 31.191406-31.191406h118.367188c-22.671875 15.9375-37.558594 42.238281-37.558594 72-17.648438 0-32 14.351562-32 32zm48.273438-27.398438c-.097657-1.539062-.273438-3.066406-.273438-4.601562 0-39.695312 32.304688-72 72-72s72 32.304688 72 72-32.304688 72-72 72c-22.023438 0-42.246094-9.816406-56-26.894531v-13.105469c0-11.679688-6.359375-21.816406-15.726562-27.398438zm122.167968-76.601562h118.367188c3.183594 15.648438 15.542968 28.007812 31.191406 31.191406v81.609375c-15.648438 3.183594-28.007812 15.542969-31.191406 31.191407h-118.367188c22.671875-15.929688 37.558594-42.230469 37.558594-71.992188s-14.886719-56.0625-37.558594-72zm-100.945312 144h-5.496094v-4.078125c1.769531 1.460937 3.632812 2.765625 5.496094 4.078125zm-37.496094 240v-48h96.40625c1.144531 17.238281 5.859375 33.503906 13.546875 48zm320-56c0 57.34375-46.65625 104-104 104s-104-46.65625-104-104 46.65625-104 104-104 104 46.65625 104 104zm-128-117.585938c-52.160156 10.632813-91.984375 55.234376-95.59375 109.585938h-80.40625v-18.425781l-22.59375-33.886719c-6.148438-9.230469-9.40625-19.976562-9.40625-31.0625v-132.625c0-8.824219 7.175781-16 16-16s16 7.175781 16 16v120h8c22.054688 0 40 17.945312 40 40h16c0-28.167969-20.894531-51.535156-48-55.433594v-16.566406h160zm0 0"/><path d="m340.6875 376-48 48 35.3125 35.3125 48-48 48 48 35.3125-35.3125-48-48 48-48-35.3125-35.3125-48 48-48-48-35.3125 35.3125zm35.3125-12.6875 48-48 12.6875 12.6875-48 48 48 48-12.6875 12.6875-48-48-48 48-12.6875-12.6875 48-48-48-48 12.6875-12.6875zm0 0"/><path d="m32 32h16v16h-16zm0 0"/><path d="m32 192h16v16h-16zm0 0"/><path d="m448 32h16v16h-16zm0 0"/><path d="m448 192h16v16h-16zm0 0"/></svg>