<svg id="Layer_5" enable-background="new 0 0 64 64" height="512" viewBox="0 0 64 64" width="512" xmlns="http://www.w3.org/2000/svg"><g><g><g><path d="m6 55h12v7h-5-7z" fill="#969faa"/></g><g><path d="m46 55h12v7h-7-5z" fill="#969faa"/></g><g><path d="m18 51v4h-12v-9c0 2.76 2.24 5 5 5z" fill="#b4dd7f"/></g><g><path d="m11.28 35.05c.25.05.49.11.72.19 3.05.91 5.31 3.57 5.67 6.81l.33 2.95h-6v-3-5c0-.74-.27-1.42-.72-1.95z" fill="#b4dd7f"/></g><g><path d="m8.4 34.06c1.15-.22 2.21.21 2.88.99.45.53.72 1.21.72 1.95v5h-6v-4.88c0-1.31.8-2.53 2-2.95.13-.05.26-.08.4-.11z" fill="#b4dd7f"/></g><g><path d="m58 46v9h-12v-4h7c2.76 0 5-2.24 5-5z" fill="#ff826e"/></g><g><path d="m52 35.24c.23-.08.47-.14.72-.19-.45.53-.72 1.21-.72 1.95v5 3h-6l.33-2.95c.36-3.24 2.62-5.9 5.67-6.81z" fill="#ff826e"/></g><g><path d="m56 34.17c1.2.42 2 1.64 2 2.95v4.88h-6v-5c0-.74.27-1.42.72-1.95.67-.78 1.73-1.21 2.88-.99.14.03.27.06.4.11z" fill="#ff826e"/></g><g><path d="m35 31 .85-6.79 1.75.44c.93.23 1.79.64 2.55 1.21.89.68 1.61 1.54 2.1 2.52.49.97.75 2.06.75 3.18v7.64l-3.22-3.22-2.29 1.36c-.59-.3-1.2-.57-1.84-.77l-.65-2.57h-6l-.65 2.57c-.64.2-1.25.47-1.84.77l-2.29-1.36-3.22 3.22v-7.64c0-2.24 1.06-4.35 2.85-5.7.76-.57 1.62-.98 2.55-1.21l1.75-.44.85 6.79 3-4z" fill="#75b1f2"/></g><g><path d="m35.85 24.21-.85 6.79-3-4 3-3z" fill="#5d9cec"/></g><g><path d="m32 27-3 4-.85-6.79.85-.21z" fill="#5d9cec"/></g><g><path d="m43.43 51.65c-.2.64-.47 1.25-.77 1.84l1.36 2.29-4.24 4.24-2.29-1.36c-.59.3-1.2.57-1.84.77l-.65 2.57h-6l-.65-2.57c-.64-.2-1.25-.47-1.84-.77l-2.29 1.36-4.24-4.24 1.36-2.29c-.3-.59-.57-1.2-.77-1.84l.04-.65h2.39c.52 0 1.01-.13 1.44-.37 1.1 3.12 4.06 5.37 7.56 5.37s6.47-2.25 7.56-5.37c.43.24.92.37 1.44.37h2.64z" fill="#ffc729"/></g><g><path d="m42.66 42.51c.3.59.57 1.2.77 1.84l.24.65h-2.67c-.52 0-1.01.13-1.44.37-1.1-3.12-4.06-5.37-7.56-5.37s-6.46 2.25-7.56 5.37c-.43-.24-.92-.37-1.44-.37h-2.44l.01-.65c.2-.64.47-1.25.77-1.84l-1.36-2.29 1.02-1.02 3.22-3.22 2.29 1.36c.59-.3 1.2-.57 1.84-.77l.65-2.57h6l.65 2.57c.64.2 1.25.47 1.84.77l2.29-1.36 3.22 3.22 1.02 1.02z" fill="#ffc729"/></g><g><path d="m36 48c0-2.21-1.79-4-4-4s-4 1.79-4 4 1.79 4 4 4 4-1.79 4-4zm2 0c0 1.14.63 2.12 1.56 2.63-1.09 3.12-4.06 5.37-7.56 5.37s-6.46-2.25-7.56-5.37c.93-.51 1.56-1.49 1.56-2.63 0-.83-.34-1.58-.88-2.12-.2-.2-.43-.37-.68-.51 1.1-3.12 4.06-5.37 7.56-5.37s6.46 2.25 7.56 5.37c-.25.14-.48.31-.68.51-.54.54-.88 1.29-.88 2.12z" fill="#fcd770"/></g><g><path d="m16 15c1.1 0 2 .9 2 2s-.45 2.1-1.17 2.83c-.21.2-.43.39-.68.54-.62.4-1.36.63-2.15.63h-1.54c-1.43 0-2.66 1.01-2.94 2.41l-1.52 7.59-.44-.15c-3.32-1.1-5.56-4.21-5.56-7.71 0-2.25.91-4.28 2.38-5.76 1.48-1.47 3.51-2.38 5.76-2.38z" fill="#b27946"/></g><g><path d="m59.12 42.4-1.12.93v-1.33-4.88c0-1.31-.8-2.53-2-2.95v-3.17l-1.52-7.59c-.28-1.4-1.51-2.41-2.94-2.41h-1.54c-.79 0-1.53-.23-2.15-.63-1.11-.71-1.85-1.95-1.85-3.37 0-.55.22-1.05.59-1.41.36-.37.86-.59 1.41-.59h6c4.42 0 8 3.58 8 8v13.25c0 2.38-1.05 4.63-2.88 6.15z" fill="#b27946"/></g><g><path d="m41 10v.23c0 1.12-.34 2.19-.93 3.08-.31-.2-.68-.31-1.07-.31h-2v-.01h-.17c-1.81 0-3.55-.72-4.83-2-1.28 1.28-3.02 2-4.83 2h-.17v.01h-2c-.39 0-.76.11-1.07.31-.59-.89-.93-1.96-.93-3.08 0-2.07.82-4.05 2.28-5.51l.63-.63c1.34-1.34 3.15-2.09 5.05-2.09 2.51 0 4.83 1.32 6.12 3.47l.92 1.53c1.66 0 3 1.34 3 3z" fill="#656d78"/></g><g><path d="m40.41 13.59c.37.36.59.86.59 1.41 0 1.1-.9 2-2 2h-2v-.01-3.99h2c.39 0 .76.11 1.07.31.12.08.24.17.34.28z" fill="#f0d0b4"/></g><g><path d="m37 13v3.99.01c0 1.91-1.08 3.56-2.65 4.41-.7.37-1.5.58-2.35.58s-1.65-.21-2.35-.58c-1.57-.85-2.65-2.5-2.65-4.41v-.01-3.99-.01h.17c1.81 0 3.55-.72 4.83-2 1.28 1.28 3.02 2 4.83 2h.17z" fill="#f0d0b4"/></g><g><path d="m29.65 21.41c.7.37 1.5.58 2.35.58s1.65-.21 2.35-.58l.65 2.59-3 3-3-3z" fill="#f0d0b4"/></g><g><path d="m27 16.99v.01h-2c-.55 0-1.05-.22-1.41-.59-.37-.36-.59-.86-.59-1.41 0-.71.37-1.33.93-1.69.31-.2.68-.31 1.07-.31h2z" fill="#f0d0b4"/></g><g><path d="m12 32v3.23.01c-.23-.08-.47-.14-.72-.19-.67-.78-1.73-1.21-2.88-.99-.14.03-.27.06-.4.11v-3.17l1.52-7.59c.28-1.4 1.51-2.41 2.94-2.41h1.54c.79 0 1.53-.23 2.15-.63l1.85 4.63-1 1v2c0 2.21-1.79 4-4 4z" fill="#f0d0b4"/></g><g><path d="m12 42v3h6 2.56 2.44c.52 0 1.01.13 1.44.37.25.14.48.31.68.51.54.54.88 1.29.88 2.12 0 1.14-.63 2.12-1.56 2.63-.43.24-.92.37-1.44.37h-2.39-2.61-7c-2.76 0-5-2.24-5-5v-1-3z" fill="#f0d0b4"/></g><g><path d="m58 45v1c0 2.76-2.24 5-5 5h-7-2.36-2.64c-.52 0-1.01-.13-1.44-.37-.93-.51-1.56-1.49-1.56-2.63 0-.83.34-1.58.88-2.12.2-.2.43-.37.68-.51.43-.24.92-.37 1.44-.37h2.67 2.33 6v-3h6v1.33z" fill="#f0d0b4"/></g><g><path d="m55.6 34.06c-1.15-.22-2.21.21-2.88.99-.25.05-.49.11-.72.19v-.01-3.23h-1c-2.21 0-4-1.79-4-4v-2l-1-1 1.85-4.63c.62.4 1.36.63 2.15.63h1.54c1.43 0 2.66 1.01 2.94 2.41l1.52 7.59v3.17c-.13-.05-.26-.08-.4-.11z" fill="#f0d0b4"/></g></g><g><path d="m32 53c2.757 0 5-2.243 5-5s-2.243-5-5-5-5 2.243-5 5 2.243 5 5 5zm0-8c1.654 0 3 1.346 3 3s-1.346 3-3 3-3-1.346-3-3 1.346-3 3-3z"/><path d="m54 14h-6c-1.654 0-3 1.346-3 3 0 1.464.643 2.769 1.649 3.685l-1.823 4.556 1.174 1.173v1.586c0 2.757 2.243 5 5 5v1.525c-3.083 1.211-5.29 4.026-5.666 7.411l-.229 2.064h-.739c-.156-.481-.344-.966-.568-1.446l1.479-2.489-1.277-1.278v-7.226c0-2.543-1.215-4.973-3.249-6.498-.87-.653-1.848-1.118-2.904-1.382l-2.022-.506-.329-1.316c1.254-.903 2.144-2.275 2.413-3.86h1.091c1.654 0 3-1.346 3-3 0-.714-.261-1.361-.679-1.877.442-.897.679-1.88.679-2.891v-.231c0-2.004-1.481-3.669-3.407-3.956l-.655-1.092c-1.464-2.438-4.138-3.952-6.981-3.952-2.174 0-4.218.847-5.755 2.384l-.625.625c-1.662 1.661-2.577 3.871-2.577 6.222 0 1.012.237 1.995.679 2.892-.418.515-.679 1.163-.679 1.877 0 1.654 1.346 3 3 3h1.091c.269 1.584 1.159 2.956 2.413 3.86l-.329 1.316-2.022.506c-1.057.264-2.034.729-2.903 1.382-2.035 1.525-3.25 3.955-3.25 6.498v7.226l-1.277 1.277 1.479 2.489c-.224.48-.412.965-.568 1.446h-.739l-.229-2.064c-.376-3.385-2.583-6.2-5.666-7.411v-1.525c2.757 0 5-2.243 5-5v-1.586l1.174-1.173-1.823-4.556c1.006-.916 1.649-2.221 1.649-3.685 0-1.654-1.346-3-3-3h-5.864c-5.037 0-9.136 4.098-9.136 9.136 0 3.85 2.402 7.259 6 8.574v1.835c-1.206.712-2 2.058-2 3.574v7.881 1 17h14v-6.787l5.064 5.064 2.489-1.479c.317.147.638.281.956.4l.714 2.802h7.555l.713-2.802c.318-.119.639-.253.956-.4l2.489 1.479 5.064-5.064v6.787h14v-17-1-1.198l.761-.635c2.058-1.715 3.239-4.234 3.239-6.914v-13.253c0-4.962-4.037-9-9-9zm-6 14v-2.414l-.826-.827 1.219-3.048c.507.174 1.042.289 1.607.289h1.541c.95 0 1.774.676 1.961 1.608l1.498 7.491v1.912c-.708.001-1.391.194-2 .548v-2.559h-2c-1.654 0-3-1.346-3-3zm-.678 14.156c.263-2.368 1.683-4.368 3.709-5.436-.007.094-.031.185-.031.28v7h-3.883zm-10.621-16.7.661.165c.796.199 1.532.549 2.188 1.042 1.534 1.15 2.45 2.982 2.45 4.899v5.226l-2.064-2.064-2.489 1.479c-.317-.147-.638-.281-.956-.4l-.714-2.803h-.019zm-4.701.13-1.893-1.893.235-.939c.527.152 1.083.238 1.658.238s1.131-.086 1.658-.238l.235.939zm2.646.182-.332 2.652-.994-1.326zm-3.966 1.326-.994 1.326-.332-2.652zm1.32 1.573 3.25 4.333h-6.5zm7-12.667h-1v-2h1c.552 0 1 .449 1 1s-.448 1-1 1zm-13 0h-1c-.552 0-1-.449-1-1s.448-1 1-1h1zm1.172-4.007h-1.172v.007h-1c-.209 0-.413.022-.61.063-.252-.575-.39-1.195-.39-1.832 0-1.817.707-3.524 1.991-4.808l.625-.625c1.16-1.159 2.701-1.798 4.341-1.798 2.145 0 4.162 1.142 5.266 2.98l1.211 2.02h.566c1.103 0 2 .897 2 2v.231c0 .636-.138 1.256-.391 1.832-.197-.041-.4-.063-.609-.063h-1v-.007h-1.172c-1.557 0-3.021-.606-4.121-1.707l-.707-.708-.707.708c-1.101 1.1-2.564 1.707-4.121 1.707zm.828 5v-3.043c1.466-.153 2.844-.712 4-1.622 1.156.91 2.534 1.468 4 1.622v3.043c0 2.206-1.794 4-4 4s-4-1.795-4-4zm-6 14.569c0-1.917.916-3.748 2.45-4.898.655-.492 1.392-.843 2.188-1.042l.661-.165.943 7.543h-.019l-.713 2.802c-.318.119-.639.253-.956.4l-2.489-1.479-2.065 2.064zm-.764 8.817 3.143-3.143 2.095 1.246.493-.255c.56-.289 1.126-.526 1.685-.705l.528-.168.597-2.354h4.445l.598 2.354.528.168c.559.179 1.125.416 1.685.705l.493.255 2.095-1.246 3.143 3.143-1.246 2.095.255.493c.175.339.325.683.464 1.033h-1.237c-.307 0-.603.042-.89.108-1.483-3.09-4.623-5.108-8.11-5.108s-6.627 2.018-8.11 5.108c-.287-.066-.583-.108-.89-.108h-1.236c.136-.345.286-.69.464-1.033l.255-.493zm4.437 4.667c1.141-2.44 3.589-4.046 6.327-4.046s5.186 1.606 6.327 4.046c-.809.732-1.327 1.779-1.327 2.954s.518 2.222 1.327 2.955c-1.14 2.44-3.589 4.045-6.327 4.045s-5.186-1.606-6.327-4.046c.809-.732 1.327-1.779 1.327-2.954s-.518-2.222-1.327-2.954zm-8.995-2.89.205 1.844h-3.883v-7c0-.095-.024-.186-.031-.28 2.026 1.068 3.446 3.068 3.709 5.436zm-.678-16.57v2.414c0 1.654-1.346 3-3 3h-2v2.56c-.609-.354-1.293-.547-2-.548v-1.911l1.498-7.493c.187-.932 1.011-1.608 1.961-1.608h1.541c.565 0 1.1-.115 1.607-.289l1.219 3.048zm-13-2.45c0-3.935 3.201-7.136 7.136-7.136h5.864c.552 0 1 .449 1 1 0 1.654-1.346 3-3 3h-1.541c-1.9 0-3.55 1.353-3.922 3.215l-1.289 6.446c-2.566-1.133-4.248-3.676-4.248-6.525zm4 13.982c0-1.009.685-1.901 1.593-2.078.137-.026.275-.04.41-.04.464 0 .903.156 1.267.456.463.383.73.945.73 1.544v4h-4zm0 7.882v-2h4v1.586l-1.707 1.707 1.414 1.414 1.707-1.707h10.586c1.103 0 2 .897 2 2s-.897 2-2 2h-12c-2.206 0-4-1.794-4-4zm10 16h-3v-.586c0-.645.251-1.251.707-1.707l-1.414-1.414c-.834.834-1.293 1.942-1.293 3.121v.586h-5v-5h10zm0-7h-10v-3.54c1.063.954 2.462 1.54 4 1.54h6zm2 1.469v-3.469h.635c.156.481.344.966.568 1.446zm20.621 3.295-2.095-1.246-.493.255c-.56.289-1.126.526-1.685.705l-.528.168-.597 2.354h-4.445l-.598-2.354-.528-.168c-.559-.179-1.125-.416-1.685-.705l-.493-.255-2.095 1.246-3.143-3.143 1.246-2.095-.255-.493c-.177-.343-.327-.688-.463-1.033h1.236c.307 0 .603-.042.89-.108 1.483 3.09 4.622 5.108 8.11 5.108s6.627-2.018 8.11-5.108c.288.066.583.108.89.108h1.237c-.137.345-.287.69-.464 1.033l-.255.493 1.246 2.095zm4.177-5.318c.223-.48.411-.963.568-1.446h.634v3.469zm13.202 7.554h-5v-.586c0-1.179-.459-2.287-1.293-3.121l-1.414 1.414c.456.456.707 1.063.707 1.707v.586h-3v-5h10zm0-7h-10v-2h6c1.538 0 2.937-.586 4-1.54zm0-9v1c0 2.206-1.794 4-4 4h-12c-1.103 0-2-.897-2-2s.897-2 2-2h10.586l1.707 1.707 1.414-1.414-1.707-1.707v-1.586h4zm0-4h-4v-4c0-.599.267-1.161.73-1.544.469-.387 1.064-.533 1.677-.416.908.177 1.593 1.069 1.593 2.078zm4-4.747c0 1.846-.723 3.592-2 4.894v-4.029c0-1.516-.794-2.861-2-3.574v-2.544l-1.537-7.784c-.372-1.863-2.022-3.216-3.922-3.216h-1.541c-1.654 0-3-1.346-3-3 0-.551.448-1 1-1h6c3.859 0 7 3.14 7 7z"/></g></g></svg>